<svg xmlns="http://www.w3.org/2000/svg" viewBox="0 0 64 64">
  <defs>
    <linearGradient id="bg" x1="0%" y1="0%" x2="100%" y2="100%">
      <stop offset="0%" style="stop-color:#1a1a2e"/>
      <stop offset="100%" style="stop-color:#16213e"/>
    </linearGradient>
    <linearGradient id="bolt" x1="0%" y1="0%" x2="100%" y2="100%">
      <stop offset="0%" style="stop-color:#ff6b35"/>
      <stop offset="100%" style="stop-color:#f7c948"/>
    </linearGradient>
  </defs>
  <rect width="64" height="64" rx="14" fill="url(#bg)"/>
  <!-- Running figure silhouette -->
  <circle cx="28" cy="16" r="5" fill="#e0e0e0"/>
  <path d="M22 24 L28 22 L34 24 L30 34 L35 44 L30 44 L27 36 L24 44 L19 44 L24 34 Z" fill="#e0e0e0"/>
  <path d="M22 26 L16 30" stroke="#e0e0e0" stroke-width="2.5" stroke-linecap="round"/>
  <path d="M34 26 L38 22" stroke="#e0e0e0" stroke-width="2.5" stroke-linecap="round"/>
  <!-- Lightning bolt (catch/speed) -->
  <path d="M42 12 L38 28 L44 28 L40 52 L50 24 L44 24 L48 12 Z" fill="url(#bolt)"/>
  <!-- Crosshair accent -->
  <circle cx="28" cy="28" r="10" fill="none" stroke="#ff6b35" stroke-width="1" opacity="0.4"/>
  <line x1="28" y1="20" x2="28" y2="22" stroke="#ff6b35" stroke-width="1.5" opacity="0.6"/>
  <line x1="28" y1="34" x2="28" y2="36" stroke="#ff6b35" stroke-width="1.5" opacity="0.6"/>
  <line x1="20" y1="28" x2="22" y2="28" stroke="#ff6b35" stroke-width="1.5" opacity="0.6"/>
  <line x1="34" y1="28" x2="36" y2="28" stroke="#ff6b35" stroke-width="1.5" opacity="0.6"/>
</svg>
